%TF.GenerationSoftware,KiCad,Pcbnew,(6.0.6-1)-1*%
%TF.CreationDate,2022-07-07T18:25:44+02:00*%
%TF.ProjectId,beef_bridge,62656566-5f62-4726-9964-67652e6b6963,rev?*%
%TF.SameCoordinates,Original*%
%TF.FileFunction,Soldermask,Bot*%
%TF.FilePolarity,Negative*%
%FSLAX46Y46*%
G04 Gerber Fmt 4.6, Leading zero omitted, Abs format (unit mm)*
G04 Created by KiCad (PCBNEW (6.0.6-1)-1) date 2022-07-07 18:25:44*
%MOMM*%
%LPD*%
G01*
G04 APERTURE LIST*
%ADD10R,1.905000X2.000000*%
%ADD11O,1.905000X2.000000*%
%ADD12R,2.600000X2.600000*%
%ADD13C,2.600000*%
%ADD14C,0.800000*%
%ADD15C,6.400000*%
%ADD16R,1.700000X1.700000*%
%ADD17O,1.700000X1.700000*%
%ADD18C,2.400000*%
%ADD19R,2.400000X2.400000*%
%ADD20C,3.600000*%
G04 APERTURE END LIST*
D10*
%TO.C,Q1*%
X151785000Y-124310000D03*
D11*
X149245000Y-124310000D03*
X146705000Y-124310000D03*
%TD*%
D12*
%TO.C,J3*%
X190245000Y-107755000D03*
D13*
X190245000Y-102755000D03*
%TD*%
D14*
%TO.C,H3*%
X176442056Y-80557944D03*
X172345000Y-82255000D03*
X173047944Y-83952056D03*
D15*
X174745000Y-82255000D03*
D14*
X174745000Y-79855000D03*
X177145000Y-82255000D03*
X173047944Y-80557944D03*
X176442056Y-83952056D03*
X174745000Y-84655000D03*
%TD*%
D12*
%TO.C,J2*%
X190245000Y-123755000D03*
D13*
X190245000Y-118755000D03*
%TD*%
D14*
%TO.C,H6*%
X166245000Y-99355000D03*
X164547944Y-100057944D03*
X167942056Y-100057944D03*
X167942056Y-103452056D03*
X163845000Y-101755000D03*
X164547944Y-103452056D03*
D15*
X166245000Y-101755000D03*
D14*
X166245000Y-104155000D03*
X168645000Y-101755000D03*
%TD*%
D15*
%TO.C,H2*%
X114745000Y-124255000D03*
D14*
X116442056Y-122557944D03*
X113047944Y-125952056D03*
X114745000Y-126655000D03*
X112345000Y-124255000D03*
X113047944Y-122557944D03*
X117145000Y-124255000D03*
X114745000Y-121855000D03*
X116442056Y-125952056D03*
%TD*%
D16*
%TO.C,J4*%
X112745000Y-89635000D03*
D17*
X112745000Y-92175000D03*
X112745000Y-94715000D03*
X112745000Y-97255000D03*
X112745000Y-99795000D03*
%TD*%
D18*
%TO.C,C6*%
X175745000Y-117005000D03*
X175745000Y-89505000D03*
%TD*%
D14*
%TO.C,H7*%
X139047944Y-100057944D03*
D15*
X140745000Y-101755000D03*
D14*
X138345000Y-101755000D03*
X143145000Y-101755000D03*
X140745000Y-99355000D03*
X142442056Y-103452056D03*
X142442056Y-100057944D03*
X139047944Y-103452056D03*
X140745000Y-104155000D03*
%TD*%
D19*
%TO.C,C2*%
X160745000Y-111277220D03*
D18*
X160745000Y-118777220D03*
%TD*%
D20*
%TO.C,L1*%
X150745000Y-95000000D03*
X150745000Y-81500000D03*
%TD*%
D14*
%TO.C,H4*%
X173047944Y-122557944D03*
X173047944Y-125952056D03*
X172345000Y-124255000D03*
X174745000Y-121855000D03*
X174745000Y-126655000D03*
X177145000Y-124255000D03*
X176442056Y-125952056D03*
D15*
X174745000Y-124255000D03*
D14*
X176442056Y-122557944D03*
%TD*%
D10*
%TO.C,Q2*%
X127785000Y-124310000D03*
D11*
X125245000Y-124310000D03*
X122705000Y-124310000D03*
%TD*%
D14*
%TO.C,H1*%
X116442056Y-83952056D03*
X113047944Y-83952056D03*
X117145000Y-82255000D03*
D15*
X114745000Y-82255000D03*
D14*
X113047944Y-80557944D03*
X114745000Y-84655000D03*
X116442056Y-80557944D03*
X114745000Y-79855000D03*
X112345000Y-82255000D03*
%TD*%
D19*
%TO.C,C3*%
X137245000Y-111277220D03*
D18*
X137245000Y-118777220D03*
%TD*%
D12*
%TO.C,J1*%
X190245000Y-87755000D03*
D13*
X190245000Y-82755000D03*
%TD*%
D15*
%TO.C,H5*%
X149745000Y-105755000D03*
D14*
X148047944Y-104057944D03*
X151442056Y-104057944D03*
X151442056Y-107452056D03*
X147345000Y-105755000D03*
X148047944Y-107452056D03*
X152145000Y-105755000D03*
X149745000Y-103355000D03*
X149745000Y-108155000D03*
%TD*%
M02*
