M48
; DRILL file {KiCad (6.0.6-1)-1} date 2022 July 07, Thursday 18:26:49
; FORMAT={-:-/ absolute / metric / decimal}
; #@! TF.CreationDate,2022-07-07T18:26:49+02:00
; #@! TF.GenerationSoftware,Kicad,Pcbnew,(6.0.6-1)-1
; #@! TF.FileFunction,Plated,1,2,PTH
FMAT,2
METRIC
; #@! TA.AperFunction,Plated,PTH,ViaDrill
T1C0.500
; #@! TA.AperFunction,Plated,PTH,ComponentDrill
T2C0.500
; #@! TA.AperFunction,Plated,PTH,ViaDrill
T3C1.000
; #@! TA.AperFunction,Plated,PTH,ComponentDrill
T4C1.000
; #@! TA.AperFunction,Plated,PTH,ComponentDrill
T5C1.100
; #@! TA.AperFunction,Plated,PTH,ComponentDrill
T6C1.200
; #@! TA.AperFunction,Plated,PTH,ComponentDrill
T7C1.300
; #@! TA.AperFunction,Plated,PTH,ComponentDrill
T8C1.800
; #@! TA.AperFunction,Plated,PTH,ComponentDrill
T9C3.200
%
G90
G05
T1
X132.0Y-109.0
T2
X112.345Y-82.255
X112.345Y-124.255
X113.048Y-80.558
X113.048Y-83.952
X113.048Y-122.558
X113.048Y-125.952
X114.745Y-79.855
X114.745Y-84.655
X114.745Y-121.855
X114.745Y-126.655
X116.442Y-80.558
X116.442Y-83.952
X116.442Y-122.558
X116.442Y-125.952
X117.145Y-82.255
X117.145Y-124.255
X138.345Y-101.755
X139.048Y-100.058
X139.048Y-103.452
X140.745Y-99.355
X140.745Y-104.155
X142.442Y-100.058
X142.442Y-103.452
X143.145Y-101.755
X147.345Y-105.755
X148.048Y-104.058
X148.048Y-107.452
X149.745Y-103.355
X149.745Y-108.155
X151.442Y-104.058
X151.442Y-107.452
X152.145Y-105.755
X163.845Y-101.755
X164.548Y-100.058
X164.548Y-103.452
X166.245Y-99.355
X166.245Y-104.155
X167.942Y-100.058
X167.942Y-103.452
X168.645Y-101.755
X172.345Y-82.255
X172.345Y-124.255
X173.048Y-80.558
X173.048Y-83.952
X173.048Y-122.558
X173.048Y-125.952
X174.745Y-79.855
X174.745Y-84.655
X174.745Y-121.855
X174.745Y-126.655
X176.442Y-80.558
X176.442Y-83.952
X176.442Y-122.558
X176.442Y-125.952
X177.145Y-82.255
X177.145Y-124.255
T3
X113.25Y-105.5
X113.5Y-111.75
X113.5Y-117.5
X126.5Y-93.5
X126.5Y-99.0
X132.5Y-93.5
X137.25Y-81.5
X137.25Y-89.25
X143.75Y-81.5
X143.75Y-89.25
X154.5Y-87.75
X160.25Y-93.0
X164.75Y-81.25
X168.0Y-84.5
X171.25Y-87.75
X181.0Y-96.75
X185.5Y-101.25
T4
X112.745Y-89.635
X112.745Y-92.175
X112.745Y-94.715
X112.745Y-97.255
X112.745Y-99.795
T5
X122.705Y-124.31
X125.245Y-124.31
X127.785Y-124.31
X146.705Y-124.31
X149.245Y-124.31
X151.785Y-124.31
T6
X137.245Y-111.277
X137.245Y-118.777
X160.745Y-111.277
X160.745Y-118.777
X175.745Y-89.505
X175.745Y-117.005
T7
X190.245Y-82.755
X190.245Y-87.755
X190.245Y-102.755
X190.245Y-107.755
X190.245Y-118.755
X190.245Y-123.755
T8
X150.745Y-81.5
X150.745Y-95.0
T9
X114.745Y-82.255
X114.745Y-124.255
X140.745Y-101.755
X149.745Y-105.755
X166.245Y-101.755
X174.745Y-82.255
X174.745Y-124.255
T0
M30
