%FSLAX45Y45*%
G04 Gerber Fmt 4.5, Leading zero omitted, Abs format (unit mm)*
G04 Created by KiCad (PCBNEW (6.0.6-1)-1) date 2022-07-07 18:27:10*
%MOMM*%
%LPD*%
G01*
G04 APERTURE LIST*
%TA.AperFunction,Profile*%
%ADD10C,0.100000*%
%TD*%
%ADD11C,0.200000*%
G04 APERTURE END LIST*
D10*
X19591657Y-8208343D02*
X19591657Y-12442657D01*
X11457343Y-7808343D02*
G75*
G03*
X11057343Y-8208343I-3J-399997D01*
G01*
X19591657Y-8208343D02*
G75*
G03*
X19191657Y-7808343I-399997J3D01*
G01*
X11457343Y-7808343D02*
X19191657Y-7808343D01*
X11057343Y-12442657D02*
G75*
G03*
X11457343Y-12842657I399997J-3D01*
G01*
X11057343Y-12442657D02*
X11057343Y-8208343D01*
X19191657Y-12842657D02*
X11457343Y-12842657D01*
X19191657Y-12842657D02*
G75*
G03*
X19591657Y-12442657I3J399997D01*
G01*
D11*
X11309962Y-13158133D02*
X11309962Y-12958133D01*
X11357581Y-12958133D01*
X11386152Y-12967657D01*
X11405200Y-12986705D01*
X11414724Y-13005752D01*
X11424247Y-13043848D01*
X11424247Y-13072419D01*
X11414724Y-13110514D01*
X11405200Y-13129562D01*
X11386152Y-13148610D01*
X11357581Y-13158133D01*
X11309962Y-13158133D01*
X11509962Y-13158133D02*
X11509962Y-13024800D01*
X11509962Y-13062895D02*
X11519485Y-13043848D01*
X11529009Y-13034324D01*
X11548057Y-13024800D01*
X11567105Y-13024800D01*
X11633771Y-13158133D02*
X11633771Y-13024800D01*
X11633771Y-12958133D02*
X11624247Y-12967657D01*
X11633771Y-12977181D01*
X11643295Y-12967657D01*
X11633771Y-12958133D01*
X11633771Y-12977181D01*
X11757581Y-13158133D02*
X11738533Y-13148610D01*
X11729009Y-13129562D01*
X11729009Y-12958133D01*
X11862343Y-13158133D02*
X11843295Y-13148610D01*
X11833771Y-13129562D01*
X11833771Y-12958133D01*
X12090914Y-13158133D02*
X12090914Y-12958133D01*
X12157581Y-13100991D01*
X12224247Y-12958133D01*
X12224247Y-13158133D01*
X12405200Y-13158133D02*
X12405200Y-13053371D01*
X12395676Y-13034324D01*
X12376628Y-13024800D01*
X12338533Y-13024800D01*
X12319485Y-13034324D01*
X12405200Y-13148610D02*
X12386152Y-13158133D01*
X12338533Y-13158133D01*
X12319485Y-13148610D01*
X12309962Y-13129562D01*
X12309962Y-13110514D01*
X12319485Y-13091467D01*
X12338533Y-13081943D01*
X12386152Y-13081943D01*
X12405200Y-13072419D01*
X12500438Y-13024800D02*
X12500438Y-13224800D01*
X12500438Y-13034324D02*
X12519485Y-13024800D01*
X12557581Y-13024800D01*
X12576628Y-13034324D01*
X12586152Y-13043848D01*
X12595676Y-13062895D01*
X12595676Y-13120038D01*
X12586152Y-13139086D01*
X12576628Y-13148610D01*
X12557581Y-13158133D01*
X12519485Y-13158133D01*
X12500438Y-13148610D01*
X12681390Y-13139086D02*
X12690914Y-13148610D01*
X12681390Y-13158133D01*
X12671866Y-13148610D01*
X12681390Y-13139086D01*
X12681390Y-13158133D01*
X12681390Y-13034324D02*
X12690914Y-13043848D01*
X12681390Y-13053371D01*
X12671866Y-13043848D01*
X12681390Y-13034324D01*
X12681390Y-13053371D01*
M02*
